<svg width="257" height="74" viewBox="0 0 257 74" fill="none" xmlns="http://www.w3.org/2000/svg">
<path fill-rule="evenodd" clip-rule="evenodd" d="M84.2741 73.1219L42.1371 0L0 73.1219L32.9918 54.0949H22.6936L42.1371 32.2824L61.5806 54.0949H51.2824L84.2741 73.1219Z" fill="white"/>
<path d="M240.085 71.4883C237.059 71.4883 234.313 70.9794 231.849 69.9616C229.412 68.917 227.309 67.4572 225.541 65.5823C223.8 63.7074 222.461 61.4843 221.524 58.913C220.586 56.3417 220.118 53.5293 220.118 50.4758V48.7884C220.118 45.2528 220.64 42.1057 221.684 39.3469C222.729 36.5613 224.149 34.2042 225.943 32.2757C227.738 30.3472 229.773 28.8875 232.05 27.8965C234.327 26.9054 236.684 26.4099 239.121 26.4099C242.228 26.4099 244.907 26.9456 247.157 28.017C249.433 29.0884 251.295 30.5883 252.741 32.5168C254.188 34.4185 255.259 36.6684 255.955 39.2665C256.652 41.8378 257 44.6502 257 47.7036V51.0383H224.537V44.9716H249.567V44.4091C249.46 42.4806 249.058 40.6057 248.362 38.7844C247.692 36.963 246.621 35.4631 245.148 34.2846C243.675 33.1061 241.666 32.5168 239.121 32.5168C237.434 32.5168 235.88 32.8784 234.461 33.6016C233.041 34.298 231.822 35.3426 230.805 36.7354C229.787 38.1282 228.997 39.829 228.434 41.8378C227.872 43.8467 227.59 46.1635 227.59 48.7884V50.4758C227.59 52.5382 227.872 54.4801 228.434 56.3015C229.023 58.096 229.867 59.6763 230.965 61.0423C232.09 62.4084 233.443 63.4797 235.023 64.2565C236.63 65.0332 238.452 65.4216 240.487 65.4216C243.112 65.4216 245.335 64.8859 247.157 63.8145C248.978 62.7432 250.572 61.3102 251.938 59.5156L256.437 63.0914C255.5 64.5109 254.308 65.8636 252.862 67.1492C251.415 68.4349 249.634 69.4795 247.518 70.283C245.429 71.0866 242.951 71.4883 240.085 71.4883Z" fill="white"/>
<path d="M210.113 8.97314V70.6848H202.641V8.97314H210.113Z" fill="white"/>
<path d="M190.106 27.2135V70.6848H182.633V27.2135H190.106ZM182.07 15.6827C182.07 14.4774 182.432 13.4596 183.155 12.6293C183.905 11.799 185.003 11.3838 186.449 11.3838C187.869 11.3838 188.954 11.799 189.704 12.6293C190.481 13.4596 190.869 14.4774 190.869 15.6827C190.869 16.8344 190.481 17.8255 189.704 18.6558C188.954 19.4593 187.869 19.8611 186.449 19.8611C185.003 19.8611 183.905 19.4593 183.155 18.6558C182.432 17.8255 182.07 16.8344 182.07 15.6827Z" fill="white"/>
<path d="M145.429 12.1873V70.6847H137.675V12.1873H145.429ZM169.937 38.5031V44.851H143.741V38.5031H169.937ZM173.914 12.1873V18.5352H143.741V12.1873H173.914Z" fill="white"/>
<path d="M117.747 60.6403V27.2131H125.22V70.6845H118.109L117.747 60.6403ZM119.153 51.4799L122.247 51.3996C122.247 54.2923 121.939 56.9708 121.323 59.435C120.734 61.8724 119.769 63.9883 118.43 65.7829C117.091 67.5775 115.336 68.9837 113.167 70.0015C110.997 70.9925 108.359 71.488 105.252 71.488C103.136 71.488 101.194 71.18 99.4264 70.5639C97.6854 69.9479 96.1855 68.997 94.9266 67.7114C93.6677 66.4257 92.6901 64.7517 91.9937 62.6893C91.3241 60.6269 90.9893 58.1493 90.9893 55.2566V27.2131H98.422V55.3369C98.422 57.2922 98.6362 58.9127 99.0648 60.1983C99.5201 61.4572 100.123 62.4616 100.873 63.2116C101.65 63.9348 102.507 64.4437 103.444 64.7383C104.408 65.0329 105.399 65.1802 106.417 65.1802C109.578 65.1802 112.082 64.5776 113.93 63.3723C115.778 62.1402 117.104 60.4929 117.908 58.4305C118.738 56.3413 119.153 54.0245 119.153 51.4799Z" fill="white"/>
</svg>
