<svg width="257" height="74" viewBox="0 0 257 74" fill="none" xmlns="http://www.w3.org/2000/svg">
<path fill-rule="evenodd" clip-rule="evenodd" d="M84.2741 73.1219L42.1371 0L0 73.1219L32.9918 54.0949H22.6936L42.1371 32.2824L61.5806 54.0949H51.2824L84.2741 73.1219Z" fill="#1A1E26"/>
<path d="M240.086 71.4882C237.059 71.4882 234.313 70.9793 231.849 69.9615C229.412 68.9169 227.309 67.4571 225.542 65.5822C223.801 63.7073 222.461 61.4842 221.524 58.9129C220.586 56.3415 220.118 53.5292 220.118 50.4757V48.7883C220.118 45.2527 220.64 42.1055 221.685 39.3467C222.729 36.5611 224.149 34.2041 225.943 32.2756C227.738 30.3471 229.773 28.8874 232.05 27.8963C234.327 26.9053 236.684 26.4098 239.121 26.4098C242.228 26.4098 244.907 26.9455 247.157 28.0169C249.433 29.0882 251.295 30.5882 252.741 32.5167C254.188 34.4184 255.259 36.6683 255.955 39.2664C256.652 41.8377 257 44.6501 257 47.7035V51.0382H224.537V44.9715H249.567V44.409C249.46 42.4805 249.058 40.6056 248.362 38.7843C247.692 36.9629 246.621 35.463 245.148 34.2844C243.675 33.1059 241.666 32.5167 239.121 32.5167C237.434 32.5167 235.88 32.8783 234.461 33.6014C233.041 34.2978 231.823 35.3424 230.805 36.7352C229.787 38.128 228.997 39.8289 228.434 41.8377C227.872 43.8465 227.591 46.1634 227.591 48.7883V50.4757C227.591 52.5381 227.872 54.48 228.434 56.3014C229.024 58.0959 229.867 59.6762 230.965 61.0422C232.09 62.4082 233.443 63.4796 235.023 64.2564C236.63 65.0331 238.452 65.4215 240.487 65.4215C243.112 65.4215 245.335 64.8858 247.157 63.8144C248.978 62.743 250.572 61.3101 251.938 59.5155L256.438 63.0912C255.5 64.5108 254.308 65.8634 252.862 67.1491C251.415 68.4348 249.634 69.4794 247.518 70.2829C245.429 71.0864 242.951 71.4882 240.086 71.4882Z" fill="#1A1E26"/>
<path d="M210.113 8.97314V70.6848H202.641V8.97314H210.113Z" fill="#1A1E26"/>
<path d="M190.106 27.2133V70.6847H182.633V27.2133H190.106ZM182.07 15.6826C182.07 14.4773 182.432 13.4595 183.155 12.6291C183.905 11.7988 185.003 11.3837 186.45 11.3837C187.869 11.3837 188.954 11.7988 189.704 12.6291C190.481 13.4595 190.869 14.4773 190.869 15.6826C190.869 16.8343 190.481 17.8254 189.704 18.6557C188.954 19.4592 187.869 19.861 186.45 19.861C185.003 19.861 183.905 19.4592 183.155 18.6557C182.432 17.8254 182.07 16.8343 182.07 15.6826Z" fill="#1A1E26"/>
<path d="M145.429 12.187V70.6845H137.675V12.187H145.429ZM169.937 38.5028V44.8508H143.741V38.5028H169.937ZM173.914 12.187V18.535H143.741V12.187H173.914Z" fill="#1A1E26"/>
<path d="M117.747 60.6403V27.2131H125.22V70.6845H118.109L117.747 60.6403ZM119.153 51.4799L122.247 51.3996C122.247 54.2923 121.939 56.9708 121.323 59.435C120.734 61.8724 119.769 63.9883 118.43 65.7829C117.091 67.5775 115.336 68.9837 113.167 70.0015C110.997 70.9925 108.359 71.488 105.252 71.488C103.136 71.488 101.194 71.18 99.4264 70.5639C97.6854 69.9479 96.1855 68.997 94.9266 67.7114C93.6677 66.4257 92.6901 64.7517 91.9937 62.6893C91.3241 60.6269 90.9893 58.1493 90.9893 55.2566V27.2131H98.422V55.3369C98.422 57.2922 98.6363 58.9127 99.0648 60.1983C99.5202 61.4572 100.123 62.4616 100.873 63.2116C101.65 63.9348 102.507 64.4437 103.444 64.7383C104.408 65.0329 105.399 65.1802 106.417 65.1802C109.578 65.1802 112.082 64.5776 113.93 63.3723C115.778 62.1402 117.104 60.4929 117.908 58.4305C118.738 56.3413 119.153 54.0245 119.153 51.4799Z" fill="#1A1E26"/>
</svg>
