<svg width="63" height="63" viewBox="0 0 63 63" fill="none" xmlns="http://www.w3.org/2000/svg">
<g clip-path="url(#clip0_5_120)">
<path d="M18.375 31.5C18.375 34.981 19.7578 38.3194 22.2192 40.7808C24.6806 43.2422 28.019 44.625 31.5 44.625V18.375C28.019 18.375 24.6806 19.7578 22.2192 22.2192C19.7578 24.6806 18.375 28.019 18.375 31.5Z" fill="#1A1E26"/>
<path d="M31.5 2.625C25.7891 2.625 20.2064 4.31848 15.4579 7.49131C10.7095 10.6641 7.00847 15.1738 4.82299 20.45C2.63751 25.7262 2.06569 31.532 3.17984 37.1332C4.29399 42.7344 7.04406 47.8795 11.0823 51.9177C15.1205 55.9559 20.2656 58.706 25.8668 59.8202C31.468 60.9343 37.2738 60.3625 42.55 58.177C47.8262 55.9915 52.3359 52.2906 55.5087 47.5421C58.6815 42.7936 60.375 37.2109 60.375 31.5C60.3924 27.7032 59.6574 23.9406 58.2124 20.4295C56.7675 16.9184 54.6412 13.7283 51.9565 11.0435C49.2717 8.35879 46.0816 6.23253 42.5705 4.78758C39.0594 3.34263 35.2968 2.60762 31.5 2.625ZM7.87501 31.5C7.90948 25.2449 10.4096 19.2558 14.8327 14.8327C19.2558 10.4096 25.2449 7.90946 31.5 7.875V18.375C34.981 18.375 38.3194 19.7578 40.7808 22.2192C43.2422 24.6806 44.625 28.019 44.625 31.5C44.625 34.981 43.2422 38.3194 40.7808 40.7808C38.3194 43.2422 34.981 44.625 31.5 44.625V55.125C25.2449 55.0905 19.2558 52.5904 14.8327 48.1673C10.4096 43.7442 7.90948 37.7551 7.87501 31.5Z" fill="#1A1E26"/>
</g>
<defs>
<clipPath id="clip0_5_120">
<rect width="63" height="63" fill="white"/>
</clipPath>
</defs>
</svg>
